<?xml version="1.0" encoding="UTF-8" standalone="no"?>
<!DOCTYPE svg PUBLIC "-//W3C//DTD SVG 1.1//EN" "http://www.w3.org/Graphics/SVG/1.1/DTD/svg11.dtd">
<svg width="100%" height="100%" viewBox="0 0 1983 793" version="1.1" xmlns="http://www.w3.org/2000/svg" xmlns:xlink="http://www.w3.org/1999/xlink" xml:space="preserve" xmlns:serif="http://www.serif.com/" style="fill-rule:evenodd;clip-rule:evenodd;stroke-linecap:round;stroke-linejoin:round;stroke-miterlimit:1.5;">
    <g id="lnnjsmIkR5p8WJid1jO1Zv" transform="matrix(0.1,0,0,0.1,0,0)">
        <g id="puicVbIPA" transform="matrix(1,0,0,1,-100,-910)">
            <path d="M2510,6708C2491,6703 2450,6691 2420,6682C2319,6654 2220,6591 2131,6500C2039,6406 1988,6319 1944,6185C1917,6100 1917,5862 1944,5775C1973,5684 2055,5522 2113,5444C2166,5373 2307,5226 2349,5200C2362,5192 2383,5177 2395,5168C2408,5158 2423,5150 2428,5150C2434,5150 2440,5147 2442,5143C2445,5135 2496,5109 2593,5065C2652,5039 2700,5026 2805,5009C2838,5003 2886,4994 2912,4989C2938,4983 2984,4980 3014,4981C3045,4982 3072,4982 3074,4979C3076,4977 3068,4926 3055,4865C3042,4805 3022,4708 3011,4650C2999,4592 2985,4532 2980,4515C2976,4499 2966,4460 2960,4429C2949,4374 2948,4372 2912,4366C2851,4356 2632,4359 2625,4370C2622,4376 2611,4380 2602,4380C2580,4380 2515,4415 2469,4451C2429,4483 2370,4585 2370,4623C2370,4643 2354,4660 2335,4660C2328,4660 2266,4541 2242,4481C2220,4424 2216,4399 2216,4300C2215,4188 2216,4183 2253,4106C2336,3932 2508,3828 2755,3803C2848,3794 2862,3790 2855,3772C2849,3756 2839,3709 2796,3495C2749,3262 2704,3046 2675,2920C2667,2884 2657,2835 2654,2810C2645,2750 2610,2673 2560,2601C2522,2546 2516,2542 2472,2537C2446,2534 2360,2518 2280,2501C2071,2457 1933,2461 1855,2513C1787,2558 1759,2594 1739,2661C1719,2726 1719,2727 1739,2772C1774,2855 1832,2888 1910,2872C1942,2865 1945,2861 1942,2833C1937,2785 1964,2743 2016,2719C2057,2699 2065,2698 2103,2711C2189,2738 2231,2815 2215,2912C2191,3054 2003,3145 1835,3095C1725,3062 1659,3015 1559,2900C1533,2870 1494,2787 1481,2734C1476,2713 1466,2677 1461,2655C1444,2594 1447,2440 1464,2389C1473,2365 1480,2338 1480,2329C1480,2301 1547,2177 1590,2125C1629,2079 1742,1991 1765,1990C1771,1990 1789,1982 1805,1973C1829,1960 1869,1956 2005,1953C2554,1943 2603,1939 2995,1866C3111,1845 3187,1827 3345,1785C3422,1765 3517,1740 3557,1730C3596,1720 3633,1709 3638,1706C3648,1700 3684,1754 3745,1865C3801,1965 3840,2031 3888,2103C3917,2146 3940,2186 3940,2191C3940,2196 3926,2219 3909,2242C3865,2304 3842,2361 3824,2458C3798,2596 3809,2728 3869,3020C3880,3072 3907,3210 3930,3325C3953,3441 3976,3550 3982,3568C3987,3587 3998,3638 4005,3683C4025,3803 4100,4177 4116,4235C4123,4263 4132,4310 4135,4340C4139,4370 4146,4404 4150,4415C4155,4426 4166,4473 4174,4520C4182,4567 4207,4693 4229,4800C4250,4907 4278,5052 4291,5122C4304,5193 4317,5250 4320,5250C4324,5250 4393,4982 4470,4670C4499,4549 4583,4225 4691,3810C4702,3769 4719,3701 4729,3660C4740,3619 4761,3533 4778,3470C4794,3407 4822,3292 4840,3215C4858,3138 4895,2987 4922,2880C4988,2618 5010,2527 5012,2515C5013,2509 5005,2471 4995,2430C4977,2354 4922,2238 4879,2185C4848,2147 4720,2020 4689,1997L4665,1979L4686,1962C4697,1953 4721,1934 4739,1920C4757,1906 4779,1888 4790,1880C4800,1872 4818,1858 4830,1850C4842,1842 4864,1825 4878,1812C4893,1800 4921,1780 4940,1768C4959,1756 4977,1743 4980,1739C4987,1729 5440,1390 5446,1390C5449,1390 5458,1383 5466,1375C5487,1355 5542,1356 5561,1378C5570,1387 5594,1409 5615,1425C5636,1442 5677,1475 5705,1500C5733,1525 5785,1570 5820,1600C5856,1630 5891,1662 5900,1670C5908,1678 5928,1695 5943,1707C5970,1728 6140,1884 6229,1970C6255,1995 6304,2040 6340,2070C6451,2165 6473,2187 6466,2198C6463,2204 6427,2230 6387,2256C6233,2357 6141,2478 6092,2645C6081,2684 6057,2762 6040,2820C6022,2878 5997,2961 5985,3005C5947,3138 5911,3258 5865,3405C5841,3482 5801,3617 5775,3705C5749,3793 5711,3921 5690,3990C5669,4059 5628,4194 5600,4290C5571,4386 5533,4512 5515,4570C5497,4628 5467,4725 5450,4785C5409,4927 5371,5050 5360,5075C5355,5086 5346,5118 5340,5145C5330,5193 5292,5334 5249,5485C5238,5524 5225,5570 5220,5588C5216,5607 5210,5622 5208,5624C5207,5625 5185,5636 5160,5650C5135,5663 5109,5680 5102,5687C5094,5694 5069,5705 5045,5711C5021,5717 4999,5727 4997,5734C4994,5741 4975,5751 4954,5758C4803,5802 4775,5810 4759,5810C4749,5810 4739,5814 4735,5819C4732,5824 4715,5832 4698,5836C4680,5839 4659,5846 4650,5851C4642,5855 4613,5869 4585,5881C4402,5962 4161,6103 4080,6177C4072,6184 4054,6200 4040,6211C3937,6295 3875,6353 3782,6453C3753,6484 3727,6510 3724,6510C3711,6510 3724,6469 3756,6411C3871,6204 4108,5998 4395,5856C4473,5818 4553,5783 4580,5776C4594,5772 4614,5765 4625,5759C4636,5754 4692,5735 4750,5716C4866,5677 4996,5627 5007,5617C5010,5613 4994,5612 4969,5615C4945,5617 4893,5622 4853,5625C4722,5634 4459,5711 4323,5778C4248,5815 4145,5873 4129,5886C4121,5894 4110,5900 4106,5900C4102,5900 4094,5905 4087,5910C4080,5916 4028,5956 3970,5999C3912,6042 3821,6121 3766,6174C3712,6227 3664,6270 3660,6270C3656,6270 3628,6244 3598,6213C3442,6048 3271,5915 3114,5836C2934,5745 2870,5728 2690,5723C2546,5719 2479,5730 2398,5772C2354,5795 2282,5861 2258,5901C2192,6008 2196,6210 2266,6322C2299,6374 2383,6437 2450,6460C2522,6485 2630,6486 2693,6462C2759,6437 2763,6430 2745,6387C2700,6278 2759,6158 2876,6124C2975,6095 3062,6133 3118,6230C3155,6291 3157,6411 3123,6480C3074,6577 2956,6667 2830,6701C2772,6717 2556,6722 2510,6708ZM3420,5821C3420,5816 3382,5774 3335,5728C3195,5589 3045,5529 2822,5522C2707,5519 2695,5521 2615,5549C2503,5589 2480,5603 2540,5595C2665,5579 2712,5579 2815,5595C2942,5614 3060,5643 3125,5670C3192,5697 3360,5784 3360,5791C3360,5796 3366,5800 3374,5800C3381,5800 3393,5807 3400,5815C3414,5832 3420,5834 3420,5821ZM5137,5333C5149,5295 5167,5234 5179,5195C5221,5051 5252,4943 5270,4885C5280,4852 5298,4791 5310,4750C5322,4709 5340,4648 5350,4615C5360,4582 5373,4535 5380,4510C5386,4485 5395,4456 5400,4445C5405,4434 5418,4391 5430,4350C5467,4217 5487,4147 5515,4055C5530,4006 5550,3938 5560,3905C5569,3872 5596,3787 5618,3715C5640,3644 5684,3497 5715,3390C5746,3283 5780,3170 5790,3140C5800,3110 5817,3054 5828,3015C5839,2977 5869,2873 5895,2785C5970,2523 6006,2445 6125,2284C6140,2263 6136,2230 6118,2230C6113,2230 6072,2267 6027,2313C5913,2427 5864,2528 5774,2835C5669,3196 5622,3357 5566,3545C5534,3650 5497,3773 5484,3820C5470,3867 5453,3923 5446,3945C5438,3967 5420,4026 5405,4075C5391,4125 5373,4183 5365,4205C5358,4227 5343,4277 5332,4315C5273,4514 5218,4695 5198,4755C5193,4772 5178,4823 5165,4870C5143,4953 5121,5026 5079,5160C5058,5226 5020,5369 5020,5382C5020,5386 5032,5391 5048,5393C5117,5403 5115,5404 5137,5333ZM4156,5255C4153,5246 4141,5185 4130,5118C4118,5051 4107,4993 4105,4990C4103,4986 4094,4939 4085,4884C4076,4830 4065,4769 4060,4750C4052,4719 3941,4167 3904,3975C3897,3937 3879,3849 3865,3780C3850,3711 3830,3610 3820,3555C3800,3446 3771,3293 3745,3160C3736,3113 3725,3062 3720,3045C3716,3029 3706,2988 3700,2955C3693,2922 3682,2868 3674,2835C3647,2712 3637,2595 3643,2433C3646,2332 3644,2270 3638,2270C3633,2270 3616,2256 3601,2239L3573,2208L3561,2277C3554,2314 3545,2361 3540,2380C3532,2412 3517,2542 3519,2565C3527,2643 3559,2810 3595,2960C3604,2996 3615,3048 3620,3075C3625,3103 3641,3177 3655,3240C3669,3303 3689,3405 3700,3465C3723,3595 3744,3700 3765,3790C3773,3826 3784,3880 3790,3910C3816,4049 3857,4252 3919,4555C3935,4638 3957,4746 3966,4795C3975,4845 3991,4930 4001,4985C4011,5040 4026,5117 4033,5155C4046,5224 4047,5225 4091,5247C4144,5273 4164,5276 4156,5255Z" style="fill:white;fill-rule:nonzero;"/>
        </g>
        <g id="pY6KL7s9L" transform="matrix(1,0,0,1,-100,-910)">
            <path d="M14160,6234C14160,6217 14247,6066 14292,6005C14362,5909 14558,5717 14656,5648C14701,5616 14793,5558 14861,5518C14985,5446 15088,5373 15089,5356C15090,5351 15078,5317 15063,5281L15035,5215L15035,3435L15064,3382C15084,3346 15110,3319 15146,3295C15208,3253 15216,3252 15224,3285C15229,3303 15222,3322 15197,3357C15125,3458 15129,3402 15132,4325C15135,5269 15128,5190 15224,5282L15273,5330L15208,5392C15172,5427 15139,5462 15134,5470C15129,5479 15085,5505 15035,5529C14756,5661 14446,5901 14253,6136C14171,6236 14160,6247 14160,6234Z" style="fill:white;fill-rule:nonzero;"/>
        </g>
        <g id="phIXVHAgL" transform="matrix(1,0,0,1,-100,-910)">
            <path d="M6540,6225C6540,6206 6606,6080 6651,6014C6725,5904 6924,5707 7035,5633C7150,5556 7190,5536 7201,5547C7207,5553 7175,5585 7122,5628C7073,5668 6966,5769 6884,5852C6743,5997 6688,6059 6595,6179C6560,6224 6540,6241 6540,6225Z" style="fill:white;fill-rule:nonzero;"/>
        </g>
        <g id="pFXS5eLbe" transform="matrix(1,0,0,1,-100,-910)">
            <path d="M7964,6204C7977,6147 8068,5974 8131,5886C8196,5794 8368,5612 8429,5570L8463,5546L8457,5583C8453,5610 8428,5646 8358,5727C8226,5879 8114,6020 8041,6128C7970,6231 7954,6248 7964,6204Z" style="fill:white;fill-rule:nonzero;"/>
        </g>
        <g id="p5bCOHtTF" transform="matrix(1,0,0,1,-100,-910)">
            <path d="M12275,6209C12303,6110 12408,5936 12513,5812C12584,5728 12767,5550 12782,5550C12786,5550 12790,5564 12790,5581C12790,5605 12769,5635 12682,5733C12530,5905 12442,6012 12360,6126C12286,6228 12263,6251 12275,6209Z" style="fill:white;fill-rule:nonzero;"/>
        </g>
        <g id="p12q8uURAS" transform="matrix(1,0,0,1,-100,-910)">
            <path d="M17600,6159C17648,6000 17747,5843 17890,5700C17991,5598 18094,5516 18112,5522C18118,5524 18085,5569 18039,5621C17993,5672 17946,5727 17935,5742C17924,5756 17890,5799 17860,5837C17781,5933 17712,6031 17650,6133C17621,6181 17594,6220 17589,6220C17585,6220 17590,6192 17600,6159Z" style="fill:white;fill-rule:nonzero;"/>
        </g>
        <g id="p146bK7psi" transform="matrix(1,0,0,1,-100,-910)">
            <path d="M9325,6187C9339,6140 9390,6039 9428,5983C9525,5841 9717,5649 9813,5600C9849,5581 9882,5568 9886,5572C9889,5576 9831,5641 9757,5717C9598,5879 9458,6038 9392,6132C9342,6203 9314,6227 9325,6187Z" style="fill:white;fill-rule:nonzero;"/>
        </g>
        <g id="pA5NStUGj" transform="matrix(1,0,0,1,-100,-910)">
            <path d="M10780,6202C10780,6185 10829,6073 10863,6013C10908,5933 11029,5774 11116,5681C11181,5610 11299,5515 11308,5525C11317,5534 11300,5561 11289,5554C11281,5550 11280,5551 11284,5558C11293,5573 11263,5614 11141,5754C11043,5867 10889,6067 10831,6158C10801,6205 10780,6223 10780,6202Z" style="fill:white;fill-rule:nonzero;"/>
        </g>
        <g id="p17F5uzYRY" transform="matrix(1,0,0,1,-100,-910)">
            <path d="M16140,6200C16140,6194 16154,6157 16171,6117C16236,5962 16405,5751 16566,5620C16637,5563 16640,5561 16640,5586C16640,5612 16613,5646 16466,5809C16379,5906 16266,6047 16206,6133C16157,6202 16140,6219 16140,6200Z" style="fill:white;fill-rule:nonzero;"/>
        </g>
        <g id="p1CFccNgVS" transform="matrix(1,0,0,1,-100,-910)">
            <path d="M6391,6085C6338,6019 6201,5893 6105,5822C6067,5794 6030,5766 6023,5760C6016,5755 6008,5750 6004,5750C6001,5750 5981,5737 5961,5722C5927,5695 5798,5618 5717,5575C5696,5564 5669,5546 5658,5536C5638,5517 5638,5517 5707,5450C5825,5336 5820,5361 5820,4887C5820,4482 5820,4479 5844,4410C5873,4328 5914,4265 5971,4217C6021,4173 6152,4109 6245,4082C6331,4057 6663,3990 6830,3964C6907,3953 7058,3902 7133,3863C7179,3839 7231,3800 7278,3754L7350,3682L7350,3598C7350,3474 7329,3404 7279,3358C7256,3337 7214,3309 7184,3294C7130,3267 7130,3267 7082,3285C7056,3295 6981,3331 6915,3365C6687,3485 6473,3528 6346,3480C6239,3439 6175,3357 6163,3244C6152,3143 6215,3029 6305,2989C6360,2964 6459,2964 6508,2989C6528,2999 6556,3023 6570,3042C6591,3070 6595,3085 6594,3148C6594,3217 6595,3220 6617,3220C6652,3220 6753,3184 6839,3141C6979,3070 7149,2931 7357,2716C7432,2639 7497,2580 7507,2580C7517,2580 7555,2610 7590,2646C7662,2720 7852,2867 7951,2925C8073,2998 8257,3087 8339,3115C8384,3130 8420,3146 8418,3150C8416,3155 8377,3186 8330,3219C8284,3252 8220,3305 8189,3336C8087,3436 8095,3348 8092,4297L8090,5130L8114,5167C8127,5188 8152,5219 8170,5235L8203,5265L8195,5235C8190,5219 8185,4828 8183,4367L8179,3529L8203,3477C8232,3413 8327,3308 8378,3285C8398,3275 8429,3257 8445,3244L8476,3221L8552,3267L8501,3305C8473,3326 8426,3373 8395,3408C8294,3525 8303,3444 8295,4290C8291,4700 8288,5072 8288,5118C8289,5211 8300,5239 8350,5265C8379,5280 8383,5279 8431,5255C8459,5241 8485,5230 8489,5230C8493,5230 8506,5248 8519,5270C8541,5309 8541,5311 8523,5333C8513,5346 8472,5387 8432,5425C8349,5503 8161,5710 8079,5815C8022,5887 7959,5981 7899,6083C7881,6114 7862,6140 7858,6140C7843,6140 7672,6019 7616,5968C7502,5866 7383,5680 7354,5560C7347,5530 7341,5472 7340,5433C7340,5376 7337,5360 7325,5360C7305,5360 7160,5436 7075,5491C6875,5621 6646,5848 6524,6038C6472,6117 6454,6139 6440,6140C6437,6140 6415,6115 6391,6085ZM6665,5306L6639,5262L6642,4853C6645,4478 6646,4442 6664,4410C6685,4370 6709,4348 6762,4320C6799,4300 6957,4240 6972,4240C6977,4240 6945,4272 6903,4311C6810,4395 6773,4447 6765,4503C6761,4526 6760,4671 6762,4825C6765,5141 6766,5146 6842,5200C6905,5246 6976,5264 7036,5249C7095,5234 7182,5194 7270,5142C7324,5110 7335,5099 7341,5070C7351,5025 7347,4034 7338,4025C7334,4021 7294,4034 7248,4053C7175,4084 6877,4185 6733,4228C6666,4247 6616,4289 6582,4354L6555,4405L6552,4822C6549,5299 6545,5279 6632,5323C6661,5337 6686,5349 6688,5350C6690,5350 6679,5330 6665,5306Z" style="fill:white;fill-rule:nonzero;"/>
        </g>
        <g id="pJuKVuk5w" transform="matrix(1,0,0,1,-100,-910)">
            <path d="M12122,6078C12014,5935 11797,5733 11617,5607C11466,5502 11473,5523 11561,5433C11694,5297 11679,5429 11680,4343C11681,3473 11680,3399 11664,3368C11633,3308 11600,3272 11529,3225C11491,3199 11460,3176 11460,3174C11460,3172 11515,3126 11583,3072C11701,2975 11846,2833 12001,2662L12076,2579L12144,2659C12236,2769 12318,2843 12570,3046C12688,3141 12798,3230 12813,3243L12841,3268L12752,3344C12695,3393 12654,3437 12637,3469L12610,3518L12610,4378C12610,5229 12610,5238 12590,5233C12579,5230 12552,5208 12530,5184L12489,5140L12492,4312L12495,3485L12522,3435C12549,3384 12571,3358 12631,3305L12665,3275L12610,3270C12556,3265 12554,3265 12507,3310C12480,3335 12447,3376 12434,3402L12410,3449L12410,4305C12410,5025 12412,5166 12424,5195C12441,5235 12519,5316 12554,5330C12590,5343 12688,5316 12792,5262C12796,5260 12811,5278 12826,5301L12853,5344L12747,5445C12524,5656 12362,5850 12216,6083C12196,6114 12178,6140 12175,6140C12172,6140 12149,6112 12122,6078Z" style="fill:white;fill-rule:nonzero;"/>
        </g>
        <g id="pUq6P3PbW" transform="matrix(1,0,0,1,-100,-910)">
            <path d="M13952,6061C13773,5891 13419,5682 13083,5550C13010,5521 12950,5495 12950,5492C12950,5489 12976,5457 13009,5421C13122,5293 13110,5415 13110,4385L13110,3485L13086,3435C13074,3408 13046,3363 13026,3337C13005,3310 12991,3282 12993,3276C12996,3269 13020,3255 13047,3246C13439,3102 13773,2895 14038,2633C14103,2569 14119,2568 14186,2626C14258,2690 14413,2809 14423,2810C14427,2810 14452,2825 14479,2843C14600,2927 14953,3082 15102,3119C15140,3128 15170,3139 15170,3144C15170,3154 15115,3207 15047,3262C15022,3283 14991,3321 14978,3347L14955,3395L14952,4315C14951,4821 14950,5272 14950,5318L14950,5401L14919,5412C14850,5436 14702,5514 14607,5577C14475,5664 14245,5892 14144,6035C14101,6096 14066,6136 14054,6137C14042,6139 14005,6111 13952,6061ZM14290,4452L14290,3473L14213,3425C14170,3399 14119,3367 14100,3355C14017,3301 13809,3180 13801,3180C13796,3180 13793,3197 13794,3218C13796,3238 13797,3676 13798,4192L13800,5128L13836,5149C13855,5161 13873,5170 13876,5170C13878,5170 13880,4761 13880,4260C13880,3760 13882,3350 13884,3350C13887,3350 13904,3359 13923,3370L13957,3390L13963,3542C13967,3625 13970,4027 13971,4434C13971,4981 13974,5184 13983,5210C13993,5239 14017,5260 14134,5338C14211,5388 14278,5430 14282,5430C14286,5430 14290,4990 14290,4452Z" style="fill:white;fill-rule:nonzero;"/>
        </g>
        <g id="pC03oStqF" transform="matrix(1,0,0,1,-100,-910)">
            <path d="M10640,6111C10632,6101 10553,6019 10465,5929C10377,5838 10273,5727 10234,5680C10195,5633 10142,5578 10116,5557L10070,5518L10102,5462C10133,5407 10133,5406 10118,5366C10099,5317 9981,5058 9841,4758C9786,4638 9740,4536 9740,4530C9740,4505 9716,4527 9633,4626C9585,4685 9499,4786 9443,4852C9386,4917 9340,4975 9340,4979C9340,4997 9431,5120 9521,5224C9620,5339 9680,5392 9765,5438C9793,5453 9815,5470 9815,5477C9815,5483 9784,5511 9745,5538C9597,5643 9411,5841 9291,6023C9255,6076 9223,6120 9218,6120C9214,6120 9198,6101 9183,6078C9094,5941 8864,5698 8725,5595C8620,5517 8620,5518 8666,5465C8687,5441 8759,5359 8825,5283C8891,5207 8950,5140 8956,5134C8967,5121 9030,5046 9188,4855C9319,4697 9412,4586 9420,4580C9430,4572 9614,4360 9629,4339C9643,4319 9625,4270 9508,4020C9287,3550 9224,3430 9170,3377C9121,3329 9106,3324 9031,3330C8994,3332 8937,3364 8906,3399C8895,3410 8884,3420 8880,3420C8876,3420 8845,3388 8811,3349L8750,3278L8776,3247C8791,3229 8901,3114 9022,2991C9143,2868 9277,2725 9322,2674C9366,2622 9405,2580 9408,2580C9425,2580 9761,2878 9901,3017L10057,3171L10047,3208C10038,3242 10042,3255 10104,3384C10140,3460 10170,3524 10170,3527C10170,3529 10197,3588 10231,3658C10264,3728 10303,3811 10317,3842C10331,3874 10345,3900 10349,3900C10356,3900 10423,3822 10465,3765C10482,3743 10525,3690 10563,3646C10600,3603 10630,3561 10630,3552C10630,3544 10613,3514 10592,3486C10571,3458 10546,3422 10535,3405C10494,3339 10395,3248 10328,3214C10290,3195 10260,3176 10260,3172C10260,3168 10306,3120 10361,3065C10417,3010 10537,2881 10628,2778C10718,2674 10798,2590 10804,2590C10810,2590 10831,2612 10850,2638C10962,2791 11169,3004 11283,3085C11314,3107 11339,3130 11339,3135C11339,3141 11302,3170 11257,3200C11160,3265 11050,3374 10891,3562C10827,3637 10699,3787 10606,3895L10438,4092L10495,4223C10527,4296 10575,4401 10601,4458C10628,4514 10650,4563 10650,4565C10650,4568 10674,4621 10704,4683C10734,4744 10799,4883 10850,4990C10938,5178 10968,5225 11032,5271C11058,5290 11059,5290 11109,5271C11137,5261 11182,5236 11209,5216L11258,5180L11288,5217C11304,5238 11325,5267 11335,5282L11352,5310L11189,5477C10953,5719 10837,5865 10708,6084C10678,6134 10663,6140 10640,6111Z" style="fill:white;fill-rule:nonzero;"/>
        </g>
        <g id="p8mipw3tl" transform="matrix(1,0,0,1,-100,-910)">
            <path d="M17424,6079C17306,5923 17074,5709 16870,5569C16829,5540 16793,5515 16791,5514C16789,5512 16794,5502 16802,5493C16811,5483 16829,5452 16844,5423L16870,5371L16870,4427C16870,3873 16867,3473 16861,3459C16850,3430 16826,3409 16738,3347C16701,3321 16660,3300 16646,3300C16623,3300 16513,3368 16387,3461L16341,3495L16338,4235C16337,4642 16336,5022 16336,5080C16335,5201 16348,5235 16421,5308C16471,5357 16486,5359 16577,5325L16644,5299L16662,5322C16672,5335 16680,5351 16680,5358C16680,5365 16606,5444 16516,5534C16325,5726 16195,5880 16109,6020C16076,6075 16044,6120 16040,6120C16035,6120 16005,6083 15974,6038C15868,5887 15617,5655 15390,5498L15365,5481L15462,5391C15515,5341 15570,5280 15584,5256L15610,5211L15610,3450L15588,3402C15576,3376 15540,3329 15509,3296C15450,3235 15448,3235 15384,3255C15366,3260 15358,3254 15338,3218L15313,3174L15461,3022C15542,2939 15661,2808 15725,2730C15790,2653 15845,2590 15849,2590C15858,2590 16113,2850 16196,2945C16279,3039 16370,3169 16370,3193C16370,3202 16376,3210 16383,3210C16439,3210 16766,2908 16942,2694L17035,2582L17110,2654C17244,2782 17382,2884 17589,3009C17700,3077 17845,3150 17867,3150C17889,3150 17882,3169 17853,3187C17837,3196 17790,3230 17748,3262C17679,3314 17667,3328 17635,3395L17600,3469L17600,4288C17600,4992 17602,5113 17615,5143C17630,5180 17706,5267 17715,5258C17718,5255 17713,5236 17704,5215C17690,5181 17688,5085 17690,4342L17691,3506L17715,3457C17729,3430 17746,3400 17753,3390C17778,3354 17924,3230 17941,3230C17951,3230 17972,3238 17989,3247L18019,3265L17957,3326C17843,3439 17810,3478 17805,3506C17802,3522 17798,3874 17797,4289C17795,4882 17792,5044 17783,5048C17764,5054 17765,5170 17784,5170C17792,5170 17801,5181 17804,5195C17807,5208 17828,5238 17849,5260C17896,5310 17905,5309 18038,5238C18157,5175 18207,5160 18300,5160C18418,5161 18502,5210 18546,5305C18596,5411 18569,5533 18481,5595C18445,5620 18429,5625 18382,5624C18313,5623 18251,5587 18226,5535C18206,5494 18206,5477 18225,5439C18244,5402 18240,5394 18195,5386C18152,5378 18113,5394 18011,5464C17890,5547 17662,5814 17573,5976C17553,6014 17526,6063 17514,6085C17502,6107 17486,6126 17478,6128C17470,6129 17446,6107 17424,6079Z" style="fill:white;fill-rule:nonzero;"/>
        </g>
        <g id="p6DGxdfZC" transform="matrix(1,0,0,1,-100,-910)">
            <path d="M16462,5196L16430,5159L16430,4842C16430,4668 16429,4305 16428,4035L16426,3545L16473,3510C16499,3491 16538,3465 16560,3452L16600,3430L16606,3454C16610,3472 16605,3488 16587,3512C16533,3582 16535,3551 16530,4375C16525,5027 16522,5152 16509,5188L16494,5232L16462,5196Z" style="fill:white;fill-rule:nonzero;"/>
        </g>
        <g id="pBw3ZdqNw" transform="matrix(1,0,0,1,-100,-910)">
            <path d="M9468,5024C9453,4988 9453,4983 9470,4960C9497,4923 9671,4725 9680,4722C9684,4721 9690,4733 9694,4751C9700,4785 9684,4812 9575,4946C9548,4980 9516,5020 9504,5036L9484,5064L9468,5024Z" style="fill:white;fill-rule:nonzero;"/>
        </g>
        <g id="p6GF6mILD" transform="matrix(1,0,0,1,-100,-910)">
            <path d="M2473,4598C2501,4520 2627,4440 2719,4440C2740,4440 2771,4435 2789,4429C2807,4423 2824,4420 2827,4424C2836,4433 2787,4480 2768,4480C2759,4480 2749,4484 2746,4489C2743,4493 2721,4500 2696,4503C2657,4509 2583,4536 2570,4551C2567,4554 2549,4566 2528,4578C2508,4590 2489,4607 2486,4615C2475,4646 2462,4629 2473,4598Z" style="fill:white;fill-rule:nonzero;"/>
        </g>
        <g id="p6EWQhuIB" transform="matrix(1,0,0,1,-100,-910)">
            <path d="M10608,4057C10614,4050 10642,4013 10671,3974C10753,3866 10837,3763 10915,3675C10954,3631 11008,3568 11035,3535C11178,3365 11261,3295 11316,3302C11342,3305 11335,3314 11190,3480C11106,3576 10988,3709 10929,3775C10818,3900 10642,4062 10615,4066C10604,4068 10602,4065 10608,4057Z" style="fill:white;fill-rule:nonzero;"/>
        </g>
        <g id="pA9RbnhSW" transform="matrix(1,0,0,1,-100,-910)">
            <path d="M11982,2408C11944,2362 11829,2246 11727,2150C11583,2013 11544,1971 11551,1959C11555,1950 11590,1918 11627,1888C11664,1857 11776,1753 11874,1656C11973,1559 12057,1480 12061,1480C12065,1480 12093,1511 12123,1548C12187,1627 12383,1814 12488,1896C12528,1926 12560,1957 12560,1963C12560,1970 12542,1988 12520,2005C12461,2048 12160,2356 12112,2422C12089,2453 12066,2481 12061,2484C12056,2488 12020,2453 11982,2408Z" style="fill:white;fill-rule:nonzero;"/>
        </g>
        <g transform="matrix(13.0986,0,0,13.0986,3845,7037.74)">
            <text x="0px" y="0px" style="font-family:'CopperplateGothic-Bold', 'Copperplate Gothic Bold', sans-serif;font-size:109.363px;fill:white;">S   T   U   D   I   O   S</text>
        </g>
        <g transform="matrix(9.70851,0,0,10.14,-250.343,54.563)">
            <path d="M410.5,562.5L1828.5,562.5" style="fill:none;stroke:white;stroke-width:4.02px;"/>
        </g>
        <g transform="matrix(9.53191,0,0,10.14,-52.6363,204.563)">
            <path d="M410.5,562.5L1828.5,562.5" style="fill:none;stroke:white;stroke-width:5.08px;"/>
        </g>
        <g transform="matrix(9.70851,0,0,-10.14,-250.343,13062.1)">
            <path d="M410.5,562.5L1828.5,562.5" style="fill:none;stroke:white;stroke-width:4.02px;"/>
        </g>
        <g transform="matrix(9.53191,0,0,-10.14,-52.6363,12912.1)">
            <path d="M410.5,562.5L1828.5,562.5" style="fill:none;stroke:white;stroke-width:5.08px;"/>
        </g>
    </g>
</svg>
